<svg xmlns="http://www.w3.org/2000/svg" xmlns:svg="http://www.w3.org/2000/svg" id="svg1" width="18" height="18" version="1.1" viewBox="0 0 576 576"><style>.a{fill:#0d0c0b}@media (prefers-color-scheme:dark){.a{fill:#fff8e7}}</style><path id="path1" fill="#1e3050" d="M 434.7,128.1 C 410.1,71.500002 353.7,32.000002 288,32.000002 c -65.7,0 -122.1,39.5 -146.7,96.099998 -16.4,1.4 -29.3,15.1 -29.3,31.9 v 64 c 0,16.8 12.9,30.5 29.3,31.9 24.6,56.6 81,96.1 146.7,96.1 65.7,0 122.1,-39.5 146.7,-96.1 16.4,-1.4 29.3,-15.1 29.3,-31.9 v -64 c 0,-16.8 -12.9,-30.5 -29.3,-31.9 z M 400,176 v 16 c 0,53 -43,96 -96,96 h -32 c -53,0 -96,-43 -96,-96 v -16 c 0,-26.5 21.5,-48 48,-48 h 128 c 26.5,0 48,21.5 48,48 z m -146.7,18.7 -6,-21.2 c -0.9,-3.3 -3.9,-5.5 -7.3,-5.5 -3.4,0 -6.4,2.2 -7.3,5.5 l -6,21.2 -21.2,6 c -3.3,0.9 -5.5,3.9 -5.5,7.3 0,3.4 2.2,6.4 5.5,7.3 l 21.2,6 6,21.2 c 0.9,3.3 3.9,5.5 7.3,5.5 3.4,0 6.4,-2.2 7.3,-5.5 l 6,-21.2 21.2,-6 c 3.3,-0.9 5.5,-3.9 5.5,-7.3 0,-3.4 -2.2,-6.4 -5.5,-7.3 z m -76.6,153.8 c -66,26.1 -112.700001,90.5 -112.700001,165.8 0,16.4 13.3,29.7 29.7,29.7 H 192 v -64 c 0,-17.7 14.3,-32 32,-32 h 128 c 17.7,0 32,14.3 32,32 v 64 h 98.3 C 498.7,544 512,530.7 512,514.3 512,439 465.3,374.6 399.3,348.5 367.9,370.8 329.5,384 288,384 246.5,384 208.1,370.8 176.7,348.5 Z M 240,480 c -8.8,0 -16,7.2 -16,16 v 48 h 32 v -48 c 0,-8.8 -7.2,-16 -16,-16 z m 96,32 a 16,16 0 1 0 0,-32 16,16 0 1 0 0,32 z" class="a"/></svg>